<svg xmlns="http://www.w3.org/2000/svg" viewBox="0 0 192 192" fill="none">
  <rect width="192" height="192" rx="48" fill="#6366f1"/>
  <path d="M96 48C76.1177 48 60 64.1177 60 84V108C60 127.882 76.1177 144 96 144C115.882 144 132 127.882 132 108V84C132 64.1177 115.882 48 96 48Z" fill="white"/>
  <path d="M96 72C88.268 72 82 78.268 82 86V106C82 113.732 88.268 120 96 120C103.732 120 110 113.732 110 106V86C110 78.268 103.732 72 96 72Z" fill="#6366f1"/>
  <circle cx="96" cy="96" r="8" fill="white"/>
</svg>
